<svg width="924" height="743" viewBox="0 0 924 743" fill="none" xmlns="http://www.w3.org/2000/svg">
<g id="undraw_spooky_self_gn9s 1" clip-path="url(#clip0)">
<path id="Vector" d="M13.0035 320.835C20.1832 320.835 26.0035 315.015 26.0035 307.835C26.0035 300.656 20.1832 294.835 13.0035 294.835C5.82384 294.835 0.00354004 300.656 0.00354004 307.835C0.00354004 315.015 5.82384 320.835 13.0035 320.835Z" fill="#F2F2F2"/>
<path id="Vector_2" d="M104.562 400.303C111.741 400.303 117.562 394.483 117.562 387.303C117.562 380.123 111.741 374.303 104.562 374.303C97.382 374.303 91.5617 380.123 91.5617 387.303C91.5617 394.483 97.382 400.303 104.562 400.303Z" fill="#F2F2F2"/>
<path id="Vector_3" d="M53.8083 390.864C60.9881 390.864 66.8083 385.043 66.8083 377.864C66.8083 370.684 60.9881 364.864 53.8083 364.864C46.6286 364.864 40.8083 370.684 40.8083 377.864C40.8083 385.043 46.6286 390.864 53.8083 390.864Z" fill="#F2F2F2"/>
<path id="Vector_4" d="M123.803 548.645C123.455 548.377 115.165 541.881 106.69 525.037C98.9157 509.584 89.5515 482.101 89.0959 438.925C88.2333 357.131 33.3191 311.946 32.7637 311.5L34.0195 309.942C34.1602 310.056 48.262 321.537 62.2537 343.068C80.7814 371.623 90.7865 404.867 91.0962 438.904C91.9575 520.558 124.693 546.804 125.023 547.06L123.803 548.645Z" fill="#F2F2F2"/>
<path id="Vector_5" d="M71.5745 342.27C78.7542 342.27 84.5745 336.45 84.5745 329.27C84.5745 322.09 78.7542 316.27 71.5745 316.27C64.3948 316.27 58.5745 322.09 58.5745 329.27C58.5745 336.45 64.3948 342.27 71.5745 342.27Z" fill="#F2F2F2"/>
<path id="Vector_6" d="M72.2919 450.18C79.4716 450.18 85.2919 444.359 85.2919 437.18C85.2919 430 79.4716 424.18 72.2919 424.18C65.1122 424.18 59.2919 430 59.2919 437.18C59.2919 444.359 65.1122 450.18 72.2919 450.18Z" fill="#F2F2F2"/>
<path id="Vector_7" d="M131.307 546.277C131.307 546.277 107.703 521.061 135.512 484.679L131.307 546.277Z" fill="#F2F2F2"/>
<path id="Vector_8" d="M116.173 551.464C116.173 551.464 98.4545 521.815 55.8082 538.497L116.173 551.464Z" fill="#F2F2F2"/>
<path id="Vector_9" d="M13.0035 320.835C20.1832 320.835 26.0035 315.015 26.0035 307.835C26.0035 300.656 20.1832 294.835 13.0035 294.835C5.82384 294.835 0.00354004 300.656 0.00354004 307.835C0.00354004 315.015 5.82384 320.835 13.0035 320.835Z" fill="#D9DDBB"/>
<path id="Vector_10" d="M104.562 400.303C111.741 400.303 117.562 394.483 117.562 387.303C117.562 380.123 111.741 374.303 104.562 374.303C97.382 374.303 91.5617 380.123 91.5617 387.303C91.5617 394.483 97.382 400.303 104.562 400.303Z" fill="#DDDCC2"/>
<path id="Vector_11" d="M53.8083 390.864C60.9881 390.864 66.8083 385.043 66.8083 377.864C66.8083 370.684 60.9881 364.864 53.8083 364.864C46.6286 364.864 40.8083 370.684 40.8083 377.864C40.8083 385.043 46.6286 390.864 53.8083 390.864Z" fill="#D9DDBB"/>
<path id="Vector_12" d="M123.803 548.645C123.455 548.377 115.165 541.881 106.69 525.037C98.9157 509.584 89.5515 482.101 89.0959 438.925C88.2333 357.131 33.3191 311.946 32.7637 311.5L34.0195 309.942C34.1602 310.056 48.262 321.537 62.2537 343.068C80.7814 371.623 90.7865 404.867 91.0962 438.904C91.9575 520.558 124.693 546.804 125.023 547.06L123.803 548.645Z" fill="#DDDCC2"/>
<path id="Vector_13" d="M71.5745 342.27C78.7542 342.27 84.5745 336.45 84.5745 329.27C84.5745 322.09 78.7542 316.27 71.5745 316.27C64.3948 316.27 58.5745 322.09 58.5745 329.27C58.5745 336.45 64.3948 342.27 71.5745 342.27Z" fill="#DDDCC2"/>
<path id="Vector_14" d="M72.2919 450.18C79.4716 450.18 85.2919 444.359 85.2919 437.18C85.2919 430 79.4716 424.18 72.2919 424.18C65.1122 424.18 59.2919 430 59.2919 437.18C59.2919 444.359 65.1122 450.18 72.2919 450.18Z" fill="#DDDCC2"/>
<path id="Vector_15" d="M131.307 546.277C131.307 546.277 107.703 521.061 135.512 484.679L131.307 546.277Z" fill="#D9DDBB"/>
<path id="Vector_16" d="M116.173 551.464C116.173 551.464 98.4545 521.815 55.8082 538.497L116.173 551.464Z" fill="#D9DDBB"/>
<path id="Vector_17" d="M149.249 540.575H139.249L142.249 523.575H149.249V540.575Z" fill="#3F3D56"/>
<path id="Vector_18" d="M145.394 640.784C177.899 640.784 204.249 618.044 204.249 589.993C204.249 561.942 177.899 539.203 145.394 539.203C112.889 539.203 86.5381 561.942 86.5381 589.993C86.5381 618.044 112.889 640.784 145.394 640.784Z" fill="#F65C26"/>
<path id="Vector_19" opacity="0.1" d="M106.275 628.898C96.323 586.198 109.542 549.049 109.677 548.679L111.556 549.362C111.424 549.727 98.4109 586.344 108.223 628.444L106.275 628.898Z" fill="black"/>
<path id="Vector_20" opacity="0.1" d="M178.551 632.867L176.696 632.12C195.677 585.012 176.929 548.328 176.738 547.963L178.509 547.033C178.704 547.407 197.874 584.911 178.551 632.867Z" fill="black"/>
<path id="Vector_21" opacity="0.1" d="M127.388 639.131C103.361 602.136 127.008 541.646 127.25 541.04L129.108 541.78C128.87 542.377 105.604 601.918 129.066 638.042L127.388 639.131Z" fill="black"/>
<path id="Vector_22" opacity="0.1" d="M163.4 639.131L161.722 638.042C185.193 601.905 161.917 542.377 161.68 541.78L163.537 541.04C163.78 541.646 187.427 602.136 163.4 639.131Z" fill="black"/>
<path id="Vector_23" opacity="0.1" d="M122.749 559.222L129.999 571.779L137.249 584.336H122.749H108.249L115.499 571.779L122.749 559.222Z" fill="black"/>
<path id="Vector_24" d="M122.749 561.891L128.458 571.779L134.167 581.667H122.749H111.331L117.04 571.779L122.749 561.891Z" fill="#3F3D56"/>
<path id="Vector_25" opacity="0.1" d="M146.749 600.274L142.999 593.779L139.249 587.284H146.749H154.249L150.499 593.779L146.749 600.274Z" fill="black"/>
<path id="Vector_26" d="M146.749 598.894L143.796 593.779L140.843 588.664H146.749H152.655L149.702 593.779L146.749 598.894Z" fill="#3F3D56"/>
<path id="Vector_27" opacity="0.1" d="M168.749 559.222L175.999 571.779L183.249 584.336H168.749H154.249L161.499 571.779L168.749 559.222Z" fill="black"/>
<path id="Vector_28" d="M168.749 561.891L174.458 571.779L180.167 581.667H168.749H157.331L163.04 571.779L168.749 561.891Z" fill="#3F3D56"/>
<path id="Vector_29" opacity="0.1" d="M170.249 604.523H122.249V614.628H170.249V604.523Z" fill="black"/>
<path id="Vector_30" d="M165.249 605.575H127.249V613.575H165.249V605.575Z" fill="#3F3D56"/>
<path id="Vector_31" d="M135.749 610.804L132.796 605.69L129.843 600.575H135.749H141.655L138.702 605.69L135.749 610.804Z" fill="#F65C26"/>
<path id="Vector_32" d="M155.749 610.804L152.796 605.69L149.843 600.575H155.749H161.655L158.702 605.69L155.749 610.804Z" fill="#F65C26"/>
<path id="Vector_33" d="M465.413 279.719L445.388 203.706L448.332 202.954C448.332 202.954 428.03 103.749 417.136 98.3058C408.605 94.0432 404.668 95.6846 404.668 95.6846L364.384 97.9361C359.081 94.7158 354.518 90.4121 350.993 85.3066C364.607 81.6842 377.153 75.5361 385.185 65.3476L382.323 57.2455C382.323 57.2455 387.327 57.4825 388.759 64.6317L391.618 60.3411C391.618 60.3411 386.612 53.9079 373.979 46.5235C365.687 41.6767 360.884 30.2581 358.562 22.9825C356.695 16.8931 353.031 11.5102 348.05 7.53985C339.27 0.707954 324.526 -5.46956 306.762 7.93421C306.762 7.93421 288.887 5.31762 282.936 31.2962C276.985 57.2748 265.554 86.8295 265.554 86.8295L275.564 87.3034C275.564 87.3034 274.606 70.1447 280.086 66.5683L281.999 88.4933C294.487 90.0006 307.081 90.4529 319.646 89.8454L318.908 105.423L275.742 124.919C275.742 124.919 272.133 123.936 272.464 134.106C272.795 144.277 284.962 247.617 284.962 247.617L287.83 246.9L298.434 323.399C298.434 323.399 291.23 372.613 312.554 368.342C321.547 366.541 322.66 357.214 320.941 347.029C322.37 350.38 323.938 353.765 325.674 357.184C359.484 423.774 365.067 443.129 365.067 443.129L403.489 575.333C408.243 575.76 413.034 575.544 417.731 574.691L426.791 606.494C426.791 606.494 420.239 641.928 442.22 640.938C442.44 640.928 442.657 640.917 442.872 640.905C445.589 640.739 448.228 639.933 450.573 638.552C452.919 637.171 454.904 635.255 456.368 632.96C457.832 630.666 458.732 628.057 458.995 625.348C459.257 622.639 458.876 619.906 457.881 617.373L451.066 599.926C451.066 599.926 447.246 574.276 438.728 564.99C438.791 564.933 438.855 564.882 438.918 564.825L408.043 436.228L392.274 357.493L419.528 442.458L436.94 529.393C436.94 529.393 437.711 529.906 439.047 530.644C439.175 535.143 440.015 539.592 441.537 543.828C445.148 553.341 452.374 580.897 452.374 580.897C452.374 580.897 458.287 610.422 469.769 608.123C473.87 607.301 476.631 603.049 478.485 597.921C480.381 592.497 481.155 586.744 480.762 581.012C480.369 575.28 478.816 569.687 476.197 564.572L465.158 542.509L463.671 535.086C468.576 533.602 473.218 530.081 476.635 523.149L460.533 425.715C460.533 425.715 447.589 322.408 438.173 287.786C442.791 285.503 445.73 283.661 445.73 283.661L416.517 231.505C413.415 227.091 410.806 222.35 408.737 217.367L408.721 217.37C405.655 210.068 403.073 200.673 404.114 191.047C404.542 186.749 405.737 182.563 407.644 178.687C408.56 176.793 409.307 174.821 409.876 172.795L417.495 210.836L419.457 210.334L451.634 279.067C451.634 279.067 448.367 330.904 469.691 326.633C491.015 322.362 465.413 279.719 465.413 279.719ZM320.147 207.864C324.03 215.412 322.606 225.167 322.147 227.647C322.072 228.037 322.03 228.251 322.03 228.251C320.427 229.79 319.056 231.552 317.96 233.484L310.826 197.867C312.802 199.694 314.908 201.453 317.102 203.646C318.327 204.888 319.355 206.31 320.147 207.864V207.864ZM314.644 240.188C314.472 240.598 314.302 241.014 314.134 241.435L314.182 240.304L314.644 240.188ZM310.9 317.491L311.028 314.468C311.394 316.431 311.806 318.416 312.264 320.425C311.435 318.576 310.899 317.491 310.899 317.491L310.9 317.491Z" fill="#F2F2F2"/>
<path id="Vector_34" d="M832.688 638.276H52.335V641.058H832.688V638.276Z" fill="#3F3D56"/>
<path id="Vector_35" d="M469 62H459L462 45H469V62Z" fill="#3F3D56"/>
<path id="Vector_36" d="M377.601 287.698L372.582 371.341C372.582 371.341 355.853 418.182 377.601 418.182C399.348 418.182 385.965 367.995 385.965 367.995L406.04 286.025L377.601 287.698Z" fill="#E49C0E"/>
<path id="Vector_37" d="M539.869 277.66L544.888 361.304C544.888 361.304 561.617 408.144 539.869 408.144C518.122 408.144 531.505 357.958 531.505 357.958L511.43 275.988L539.869 277.66Z" fill="#E49C0E"/>
<path id="Vector_38" d="M439.497 632.309L442.843 674.131C442.843 674.131 429.46 707.588 451.207 710.934C451.425 710.967 451.64 710.999 451.853 711.029C454.549 711.4 457.295 711.128 459.866 710.235C462.438 709.342 464.761 707.853 466.647 705.89C468.532 703.928 469.927 701.547 470.717 698.942C471.507 696.337 471.669 693.583 471.191 690.903L467.936 672.458C467.936 672.458 469.609 639.001 459.572 632.309C449.534 625.618 439.497 632.309 439.497 632.309Z" fill="#2F2E41"/>
<path id="Vector_39" d="M471.282 595.506C471.282 595.506 467.936 605.543 469.609 615.58C471.282 625.618 472.954 654.056 472.954 654.056C472.954 654.056 472.954 684.168 484.665 684.168C488.847 684.168 492.389 680.541 495.214 675.877C498.138 670.93 500.027 665.442 500.768 659.744C501.508 654.046 501.083 648.257 499.52 642.728L493.029 618.926V600.524L471.282 595.506Z" fill="#2F2E41"/>
<path id="Vector_40" d="M409.385 289.371C409.385 289.371 372.582 337.884 392.657 409.817C412.731 481.751 414.404 501.825 414.404 501.825L426.114 639C426.114 639 446.189 645.692 462.917 635.655L457.899 503.498V423.2L467.936 511.862V600.524C467.936 600.524 491.356 623.945 508.085 602.197L511.431 503.498C511.431 503.498 521.468 366.323 514.776 352.94C508.085 339.557 493.029 292.716 493.029 292.716L409.385 289.371Z" fill="#2F2E41"/>
<path id="Vector_41" d="M454 153C485.48 153 511 130.614 511 103C511 75.3858 485.48 53 454 53C422.52 53 397 75.3858 397 103C397 130.614 422.52 153 454 153Z" fill="#E49C0E"/>
<path id="Vector_42" d="M442.843 132.121L432.806 172.27L462.917 259.259L486.337 167.251C486.337 167.251 464.59 152.195 469.609 132.121H442.843Z" fill="#E49C0E"/>
<path id="Vector_43" d="M456.749 110.894L453.796 105.779L450.843 100.664H456.749H462.655L459.702 105.779L456.749 110.894Z" fill="#3F3D56"/>
<path id="Vector_44" d="M524.54 364.674C524.54 364.674 476.026 383.075 465.989 354.637C455.952 326.198 457.625 304.45 457.625 304.45C457.625 304.45 442.569 363.001 417.476 363.001C392.383 363.001 379 354.637 379 354.637C379 354.637 397.402 296.086 414.13 286.049C414.13 286.049 414.214 285.848 414.365 285.48C415.301 283.138 418.614 273.854 416.288 265.69C415.816 264.01 415.088 262.414 414.13 260.956C407.439 250.919 400.747 247.573 402.42 222.48L389.037 175.639L435.192 165L459.298 240.881L481.246 166.589L521.194 172.294C521.194 172.294 524.54 232.517 507.811 254.264C505.181 257.69 503.186 261.56 501.922 265.69C499.012 274.924 499.698 284.644 501.27 292.406H501.287C502.337 297.698 503.964 302.859 506.138 307.796L524.54 364.674Z" fill="#3F3D56"/>
<path id="Vector_45" d="M443.513 273.171L443.462 280.17L417.257 279.98C416.221 277.639 416.238 275.306 417.308 272.98L443.513 273.171Z" fill="#E49C0E"/>
<path id="Vector_46" opacity="0.1" d="M425.83 280C424.509 277.682 424.769 275.265 426.582 273L428 273.205C426.313 275.363 426.071 277.658 427.298 279.864L425.83 280Z" fill="black"/>
<path id="Vector_47" opacity="0.1" d="M447.496 287.721C445.745 279.978 446.09 271.907 448.494 264.341L450.374 265.024C448.138 272.232 447.817 279.898 449.444 287.267L447.496 287.721Z" fill="black"/>
<path id="Vector_48" d="M511.43 170.597L521.468 168.924C521.468 168.924 525.65 168.087 533.178 173.942C542.791 181.419 543.215 282.679 543.215 282.679L511.43 284.352V170.597V170.597Z" fill="#3F3D56"/>
<path id="Vector_49" d="M397.675 175.615L389.311 172.27C389.311 172.27 385.965 170.597 384.292 180.634C382.619 190.671 374.255 294.389 374.255 294.389L409.385 292.716V217.437L397.675 175.615Z" fill="#3F3D56"/>
<path id="Vector_50" opacity="0.1" d="M416.275 140.898C406.323 98.1977 419.542 61.0488 419.677 60.6786L421.556 61.3622C421.424 61.727 408.411 98.3437 418.223 140.444L416.275 140.898Z" fill="black"/>
<path id="Vector_51" opacity="0.1" d="M488.551 144.867L486.696 144.12C505.677 97.0117 486.929 60.3276 486.738 59.9628L488.509 59.0331C488.704 59.4067 507.874 96.9111 488.551 144.867Z" fill="black"/>
<path id="Vector_52" opacity="0.1" d="M437.388 151.131C413.361 114.136 437.008 53.6465 437.25 53.0396L439.108 53.7798C438.87 54.377 415.604 113.918 439.066 150.042L437.388 151.131Z" fill="black"/>
<path id="Vector_53" opacity="0.1" d="M473.4 151.131L471.722 150.042C495.193 113.905 471.917 54.377 471.68 53.7798L473.537 53.0396C473.78 53.6464 497.427 114.136 473.4 151.131Z" fill="black"/>
<path id="Vector_54" opacity="0.1" d="M432.749 71.222L439.999 83.779L447.249 96.336H432.749H418.249L425.499 83.779L432.749 71.222Z" fill="black"/>
<path id="Vector_55" d="M432.749 73.891L438.458 83.779L444.167 93.667H432.749H421.331L427.04 83.779L432.749 73.891Z" fill="#3F3D56"/>
<path id="Vector_56" opacity="0.1" d="M456.749 112.274L452.999 105.779L449.249 99.284H456.749H464.249L460.499 105.779L456.749 112.274Z" fill="black"/>
<path id="Vector_57" d="M456.749 110.894L453.796 105.779L450.843 100.664H456.749H462.655L459.702 105.779L456.749 110.894Z" fill="#3F3D56"/>
<path id="Vector_58" opacity="0.1" d="M478.749 71.222L485.999 83.779L493.249 96.336H478.749H464.249L471.499 83.779L478.749 71.222Z" fill="black"/>
<path id="Vector_59" d="M478.749 73.891L484.458 83.779L490.167 93.667H478.749H467.331L473.04 83.779L478.749 73.891Z" fill="#3F3D56"/>
<path id="Vector_60" opacity="0.1" d="M480.249 116.523H432.249V126.628H480.249V116.523Z" fill="black"/>
<path id="Vector_61" d="M475.249 117.575H437.249V125.575H475.249V117.575Z" fill="#3F3D56"/>
<path id="Vector_62" d="M456.749 110.894L453.796 105.779L450.843 100.664H456.749H462.655L459.702 105.779L456.749 110.894Z" fill="#3F3D56"/>
<path id="Vector_63" d="M445.749 122.804L442.796 117.69L439.843 112.575H445.749H451.655L448.702 117.69L445.749 122.804Z" fill="#E49C0E"/>
<path id="Vector_64" d="M465.749 122.804L462.796 117.69L459.843 112.575H465.749H471.655L468.702 117.69L465.749 122.804Z" fill="#E49C0E"/>
<path id="Vector_65" d="M460.498 262.265H457.634L458.493 257.396H460.498V262.265Z" fill="#2F2E41"/>
<path id="Vector_66" d="M459.394 290.963C468.703 290.963 476.249 284.451 476.249 276.417C476.249 268.384 468.703 261.871 459.394 261.871C450.085 261.871 442.538 268.384 442.538 276.417C442.538 284.451 450.085 290.963 459.394 290.963Z" fill="#E49C0E"/>
<path id="Vector_67" opacity="0.1" d="M447.496 287.721C445.745 279.978 446.09 271.907 448.494 264.341L450.374 265.024C448.138 272.232 447.817 279.898 449.444 287.267L447.496 287.721Z" fill="black"/>
<path id="Vector_68" opacity="0.1" d="M419.44 280C418.119 277.682 420.193 273 420.193 273L421.61 273.205C419.924 275.363 419.682 277.658 420.909 279.864L419.44 280Z" fill="black"/>
<path id="Vector_69" opacity="0.1" d="M430.83 280C429.509 277.682 429.769 275.265 431.582 273L433 273.205C431.313 275.363 431.071 277.658 432.298 279.864L430.83 280Z" fill="black"/>
<path id="Vector_70" opacity="0.1" d="M435.83 280C434.509 277.682 434.769 275.265 436.582 273L438 273.205C436.313 275.363 436.071 277.658 437.298 279.864L435.83 280Z" fill="black"/>
<path id="Vector_71" opacity="0.1" d="M469.552 288.962L467.697 288.215C472.992 275.071 467.791 264.812 467.739 264.71L469.51 263.782C469.745 264.231 475.207 274.925 469.552 288.962Z" fill="black"/>
<path id="Vector_72" opacity="0.1" d="M453.638 290.878C446.558 279.977 453.246 262.857 453.534 262.133L455.392 262.873C455.325 263.041 448.801 279.759 455.316 289.789L453.638 290.878Z" fill="black"/>
<path id="Vector_73" opacity="0.1" d="M465.149 290.878L463.471 289.789C469.993 279.746 463.461 263.041 463.395 262.874L465.252 262.133C465.54 262.857 472.229 279.977 465.149 290.878Z" fill="black"/>
<path id="Vector_74" d="M747.249 718.575H725.249V613.575C732.583 609.355 739.916 609.355 747.249 613.575V718.575Z" fill="#151419"/>
<path id="Vector_75" d="M843.249 717.575H637.249V719.575H843.249V717.575Z" fill="#3F3D56"/>
<path id="Vector_76" d="M705.249 741.575H683.249V636.575C690.583 632.355 697.916 632.355 705.249 636.575V741.575Z" fill="#0F0E14"/>
<path id="Vector_77" d="M696.249 616.575H692.249V637.575H696.249V616.575Z" fill="#3F3D56"/>
<path id="Vector_78" d="M706.249 607.575C706.249 610.758 704.985 613.81 702.735 616.06C700.484 618.311 697.432 619.575 694.249 619.575C691.067 619.575 688.014 618.311 685.764 616.06C683.514 613.81 682.249 610.758 682.249 607.575C682.249 600.948 694.249 579.575 694.249 579.575C694.249 579.575 706.249 600.948 706.249 607.575Z" fill="#E49C0E"/>
<path id="Vector_79" d="M738.249 593.575H734.249V614.575H738.249V593.575Z" fill="#3F3D56"/>
<path id="Vector_80" d="M748.249 584.575C748.249 587.758 746.985 590.81 744.735 593.06C742.484 595.311 739.432 596.575 736.249 596.575C733.067 596.575 730.014 595.311 727.764 593.06C725.514 590.81 724.249 587.758 724.249 584.575C724.249 577.948 736.249 556.575 736.249 556.575C736.249 556.575 748.249 577.948 748.249 584.575Z" fill="#E49C0E"/>
<path id="Vector_81" d="M789.249 741.575H767.249V636.575C774.583 632.355 781.916 632.355 789.249 636.575V741.575Z" fill="#100E18"/>
<path id="Vector_82" d="M499.513 273.171L499.462 280.17L476.687 280.005C475.788 277.665 475.805 275.332 476.737 273.005L499.513 273.171Z" fill="#E49C0E"/>
<path id="Vector_83" opacity="0.1" d="M493.756 280L492.076 279.735C498.607 277.289 492.066 273.221 492 273.18L493.86 273C494.148 273.176 500.845 277.345 493.756 280Z" fill="black"/>
<path id="Vector_84" opacity="0.1" d="M487.756 280L486.076 279.735C492.607 277.289 486.066 273.221 486 273.18L487.86 273C488.148 273.176 494.845 277.345 487.756 280Z" fill="black"/>
<path id="Vector_85" opacity="0.1" d="M480.107 280L478.092 279.735C485.928 277.289 478.08 273.221 478 273.18L480.232 273C480.578 273.176 488.614 277.345 480.107 280Z" fill="#753B27"/>
<path id="Vector_86" d="M780.249 616.575H776.249V637.575H780.249V616.575Z" fill="#3F3D56"/>
<path id="Vector_87" d="M790.249 607.575C790.249 610.758 788.985 613.81 786.735 616.06C784.484 618.311 781.432 619.575 778.249 619.575C775.067 619.575 772.014 618.311 769.764 616.06C767.514 613.81 766.249 610.758 766.249 607.575C766.249 600.948 778.249 579.575 778.249 579.575C778.249 579.575 790.249 600.948 790.249 607.575Z" fill="#E49C0E"/>
<path id="Vector_88" d="M843.249 740.575H637.249V742.575H843.249V740.575Z" fill="#3F3D56"/>
<path id="Vector_89" d="M220.407 190.554C221.75 192.921 222.789 195.455 223.494 198.085C223.661 198.678 223.806 199.268 223.936 199.857L223.939 199.861C225.234 206.233 225.311 212.743 224.165 218.999C224.089 219.405 224.039 219.621 224.039 219.621L223.448 219.433C218.712 217.808 214.205 215.411 210.095 212.33C209.73 212.048 209.363 211.762 209.003 211.461C205.861 208.956 203.173 205.855 201.087 202.33L201.058 202.279C200.841 201.901 200.632 201.519 200.435 201.135C198.73 197.743 197.579 194.095 197.035 190.354C196.961 189.89 196.896 189.431 196.841 188.972C196.252 183.886 196.407 178.779 197.3 173.834C197.376 173.427 197.426 173.211 197.426 173.211C197.426 173.211 197.634 173.271 198.016 173.399C202.619 174.977 207.005 177.285 211.022 180.241C211.378 180.508 211.732 180.781 212.087 181.063C214.51 182.971 216.689 185.212 218.562 187.723C218.887 188.163 219.201 188.619 219.501 189.083C219.818 189.559 220.118 190.05 220.407 190.554Z" fill="#D9DDBB"/>
<path id="Vector_90" d="M627.439 191.315C629.013 193.201 630.32 195.295 631.323 197.538C631.556 198.043 631.768 198.549 631.966 199.057L631.969 199.06C634.005 204.574 634.9 210.443 634.602 216.313C634.581 216.694 634.561 216.899 634.561 216.899L633.976 216.841C629.273 216.266 624.69 214.951 620.398 212.943C620.016 212.756 619.631 212.567 619.25 212.363C615.95 210.692 613.006 208.397 610.579 205.606L610.545 205.565C610.291 205.265 610.044 204.959 609.809 204.649C607.761 201.905 606.207 198.826 605.217 195.548C605.089 195.142 604.969 194.74 604.859 194.335C603.657 189.85 603.159 185.206 603.382 180.568C603.402 180.186 603.423 179.981 603.423 179.981C603.423 179.981 603.628 179.996 604.007 180.04C608.578 180.597 613.035 181.854 617.223 183.767C617.594 183.941 617.966 184.121 618.339 184.309C620.88 185.576 623.233 187.19 625.329 189.106C625.693 189.442 626.049 189.794 626.393 190.158C626.754 190.528 627.102 190.914 627.439 191.315Z" fill="#D9DDBB"/>
<path id="Vector_91" d="M687.467 367.96C686.672 370.285 685.561 372.489 684.165 374.51C683.855 374.972 683.532 375.416 683.201 375.849L683.2 375.853C679.545 380.455 674.994 384.268 669.822 387.061C669.485 387.242 669.3 387.33 669.3 387.33L669.046 386.8C667.095 382.482 665.84 377.882 665.327 373.172C665.288 372.748 665.25 372.321 665.227 371.89C664.942 368.202 665.374 364.494 666.5 360.971L666.517 360.92C666.642 360.548 666.775 360.178 666.918 359.816C668.199 356.641 670.024 353.714 672.312 351.166C672.592 350.846 672.874 350.535 673.162 350.23C676.371 346.874 680.082 344.037 684.161 341.819C684.498 341.639 684.684 341.55 684.684 341.55C684.684 341.55 684.778 341.733 684.937 342.08C686.834 346.275 688.074 350.738 688.613 355.31C688.658 355.718 688.697 356.128 688.729 356.545C688.967 359.375 688.808 362.224 688.26 365.01C688.162 365.495 688.045 365.983 687.913 366.465C687.784 366.966 687.634 367.464 687.467 367.96Z" fill="#D9DDBB"/>
<path id="Vector_92" d="M871.704 193.584C871.651 175.639 864.499 158.444 851.81 145.755C839.121 133.066 821.926 125.914 803.981 125.862V125.862C803.399 125.862 802.819 125.869 802.24 125.884C756.436 127.055 727.607 175.907 747.747 217.062L788.179 299.684C788.186 302.076 789.14 304.369 790.831 306.061C792.523 307.753 794.816 308.706 797.209 308.713H817.526L825.803 283.882L845.859 308.713H873.209L881.486 283.882L901.542 308.713H914.595C916.988 308.706 919.28 307.753 920.972 306.061C922.664 304.369 923.618 302.076 923.625 299.684L871.704 193.584Z" fill="#CFCCE0"/>
<path id="Vector_93" d="M770.872 192.832C781.262 192.832 789.684 184.41 789.684 174.02C789.684 163.631 781.262 155.208 770.872 155.208C760.483 155.208 752.06 163.631 752.06 174.02C752.06 184.41 760.483 192.832 770.872 192.832Z" fill="#3F3D56"/>
<path id="Vector_94" d="M821.288 192.832C831.677 192.832 840.1 184.41 840.1 174.02C840.1 163.631 831.677 155.208 821.288 155.208C810.898 155.208 802.476 163.631 802.476 174.02C802.476 184.41 810.898 192.832 821.288 192.832Z" fill="#3F3D56"/>
<path id="Vector_95" d="M770.872 180.792C774.612 180.792 777.644 177.76 777.644 174.02C777.644 170.28 774.612 167.248 770.872 167.248C767.132 167.248 764.1 170.28 764.1 174.02C764.1 177.76 767.132 180.792 770.872 180.792Z" fill="#CFCCE0"/>
<path id="Vector_96" d="M821.288 180.792C825.028 180.792 828.06 177.76 828.06 174.02C828.06 170.28 825.028 167.248 821.288 167.248C817.548 167.248 814.516 170.28 814.516 174.02C814.516 177.76 817.548 180.792 821.288 180.792Z" fill="#CFCCE0"/>
<path id="Vector_97" d="M777.644 165.743C779.722 165.743 781.407 164.058 781.407 161.981C781.407 159.903 779.722 158.218 777.644 158.218C775.566 158.218 773.882 159.903 773.882 161.981C773.882 164.058 775.566 165.743 777.644 165.743Z" fill="#CFCCE0"/>
<path id="Vector_98" d="M828.06 165.743C830.138 165.743 831.823 164.058 831.823 161.981C831.823 159.903 830.138 158.218 828.06 158.218C825.982 158.218 824.298 159.903 824.298 161.981C824.298 164.058 825.982 165.743 828.06 165.743Z" fill="#CFCCE0"/>
<path id="Vector_99" d="M794.625 226.788C800.7 226.788 805.625 221.863 805.625 215.788C805.625 209.712 800.7 204.788 794.625 204.788C788.55 204.788 783.625 209.712 783.625 215.788C783.625 221.863 788.55 226.788 794.625 226.788Z" fill="#3F3D56"/>
<path id="Vector_100" d="M843.527 150.239L859.395 132.228C861.985 129.289 864.674 126.273 868.208 124.583C871.741 122.892 876.373 122.858 879.21 125.559C883.536 129.676 880.464 138.069 874.682 139.563C868.9 141.056 862.724 136.756 860.698 131.138C859.52 127.539 859.648 123.641 861.061 120.127C862.473 116.614 865.079 113.711 868.42 111.928C876.923 107.714 887.217 111.906 896.558 110.226C908.349 108.105 917.034 95.2304 914.584 83.5033" fill="#CFCCE0"/>
<path id="Vector_101" d="M769.722 146.239L753.854 128.228C751.265 125.289 748.575 122.273 745.042 120.583C741.508 118.892 736.876 118.858 734.039 121.559C729.713 125.676 732.785 134.069 738.567 135.563C744.349 137.056 750.525 132.756 752.551 127.138C753.729 123.539 753.601 119.641 752.189 116.127C750.776 112.614 748.17 109.711 744.829 107.928C736.326 103.714 726.032 107.906 716.691 106.226C704.9 104.105 696.216 91.2304 698.666 79.5033" fill="#CFCCE0"/>
</g>
<defs>
<clipPath id="clip0">
<rect width="923.625" height="742.575" fill="white"/>
</clipPath>
</defs>
</svg>
