<svg width="434" height="227" viewBox="0 0 434 227" fill="none" xmlns="http://www.w3.org/2000/svg">
<g clip-path="url(#clip0)">
<path d="M72.7588 5.37207H20.8034C6.9776 5.37207 0 12.0833 0 25.3766V96.5222C0 98.2647 0.935927 99.3376 2.95235 99.3376H18.6577C20.5371 99.3376 21.747 98.2647 21.747 96.5222V93.821C21.747 87.2314 24.5243 83.6399 31.4258 82.9475H72.7588C87.9239 82.9475 94.7721 76.3731 94.7721 62.0071V26.3125C94.7721 11.9464 87.9239 5.37207 72.7588 5.37207ZM73.0479 55.9654C73.0479 63.7572 71.2826 65.3627 62.0147 65.3627H40.0014C30.741 65.3627 24.8287 68.452 21.7394 74.4937V30.6117C21.7394 24.57 23.2155 22.9568 30.5964 22.9568H62.0147C71.2826 22.9568 73.0479 24.57 73.0479 32.3542V55.9654Z" fill="#8257E5"/>
<path d="M144.574 44.704C132.628 44.704 127.522 50.7456 127.522 60.9495V96.7887C127.522 98.4018 126.715 99.3377 124.836 99.3377H110.607C108.727 99.3377 107.791 98.4018 107.791 96.7887V31.2814C107.791 29.6683 108.727 28.7247 110.607 28.7247H122.553C124.303 28.7247 125.239 29.6683 125.239 31.2814V41.8505C127.522 33.1304 134.104 28.6943 145.784 28.6943H150.616C152.358 28.6943 153.294 29.6378 153.294 31.251V42.1549C153.294 43.8974 152.358 44.704 150.616 44.704H144.574Z" fill="#8257E5"/>
<path d="M237.193 80.1396C237.193 93.4328 231.288 99.3375 217.196 99.3375H182.293C168.33 99.3375 162.288 93.4328 162.288 80.1396V47.9377C162.288 34.6521 168.33 28.7397 182.293 28.7397H217.196C231.288 28.7397 237.193 34.6521 237.193 47.9377V80.1396ZM217.462 53.0282C217.462 46.043 216.123 44.7038 207.799 44.7038H191.819C183.366 44.7038 182.019 46.043 182.019 53.0282V75.0415C182.019 82.0191 183.366 83.3659 191.819 83.3659H207.799C216.123 83.3659 217.462 82.0191 217.462 75.0415V53.0282Z" fill="#8257E5"/>
<path d="M257.06 44.7038H250.341C248.591 44.7038 247.655 43.8973 247.655 42.1548V31.2813C247.655 29.6681 248.591 28.7246 250.341 28.7246H257.053V20.0045C257.06 6.71128 264.038 0 277.864 0H294.376C296.255 0 297.062 0.943536 297.062 2.54907V13.4226C297.062 15.1727 296.255 15.9716 294.376 15.9716H285.655C278.267 15.9716 276.791 17.5848 276.791 23.6264V28.7246H294.376C296.255 28.7246 297.062 29.6681 297.062 31.2813V42.1548C297.062 43.8973 296.255 44.7038 294.376 44.7038H276.791V96.7885C276.791 98.4017 275.855 99.3376 273.975 99.3376H259.746C257.867 99.3376 257.06 98.4017 257.06 96.7885V44.7038Z" fill="#8257E5"/>
<path d="M311.831 44.7038H305.127C303.385 44.7038 302.449 43.8973 302.449 42.1548V31.2813C302.449 29.6681 303.385 28.7246 305.127 28.7246H311.846V20.0045C311.831 6.71128 318.824 0 332.634 0H349.146C351.026 0 351.832 0.943536 351.832 2.54907V13.4226C351.832 15.1727 351.026 15.9716 349.146 15.9716H340.419C333.038 15.9716 331.562 17.5848 331.562 23.6264V28.7246H349.146C351.026 28.7246 351.832 29.6681 351.832 31.2813V42.1548C351.832 43.8973 351.026 44.7038 349.146 44.7038H331.562V96.7885C331.562 98.4017 330.618 99.3376 328.739 99.3376H314.509C312.63 99.3376 311.831 98.4017 311.831 96.7885V44.7038Z" fill="#8257E5"/>
<path d="M411.831 126.723H382.566C369.417 126.723 363.779 121.625 363.779 109.001V107.662C363.74 107.302 363.782 106.937 363.904 106.596C364.025 106.254 364.221 105.944 364.479 105.689C364.736 105.434 365.047 105.24 365.39 105.122C365.733 105.004 366.097 104.964 366.457 105.006H380.154C382.033 105.006 382.969 105.95 382.969 107.692V108.362C382.969 111.048 384.453 112.121 387.405 112.121H404.32C412.371 112.121 414.387 110.112 414.387 103.264V82.0875C411.298 88.1292 405.393 91.2185 396.125 91.2185H382.429C368.466 91.2185 362.287 85.3138 362.287 72.0206V31.2811C362.269 30.9293 362.327 30.5778 362.458 30.2505C362.588 29.9233 362.788 29.6281 363.043 29.3853C363.298 29.1424 363.602 28.9576 363.936 28.8435C364.269 28.7295 364.623 28.6888 364.973 28.7244H379.34C381.082 28.7244 382.026 29.668 382.026 31.2811V66.9605C382.026 73.9381 383.502 75.2849 391.826 75.2849H402.03C410.887 75.2849 414.38 71.6553 414.38 64.2744V31.2811C414.38 29.668 415.316 28.7244 417.066 28.7244H431.439C431.783 28.6912 432.13 28.7346 432.455 28.8515C432.78 28.9684 433.075 29.1558 433.318 29.4003C433.562 29.6448 433.749 29.9403 433.864 30.2655C433.98 30.5907 434.023 30.9376 433.989 31.2811V105.379C433.981 119.464 426.463 126.723 411.831 126.723Z" fill="#8257E5"/>
</g>
<defs>
<clipPath id="clip0">
<rect width="434" height="227" fill="white"/>
</clipPath>
</defs>
</svg>
